<?xml version="1.0" encoding="UTF-8"?><svg xmlns="http://www.w3.org/2000/svg" xmlns:xlink="http://www.w3.org/1999/xlink" fill-opacity="1" color-rendering="auto" color-interpolation="auto" text-rendering="auto" stroke="black" stroke-linecap="square" width="758" stroke-miterlimit="10" shape-rendering="auto" stroke-opacity="1" fill="black" stroke-dasharray="none" font-weight="normal" stroke-width="1" height="237" font-family="'Dialog'" font-style="normal" stroke-linejoin="miter" font-size="12px" stroke-dashoffset="0" image-rendering="auto">
  <!--Generated by ySVG 2.5-->
  <defs id="genericDefs"/>
  <g>
    <defs id="defs1">
      <clipPath clipPathUnits="userSpaceOnUse" id="clipPath1">
        <path d="M0 0 L758 0 L758 237 L0 237 L0 0 Z"/>
      </clipPath>
      <clipPath clipPathUnits="userSpaceOnUse" id="clipPath2">
        <path d="M191 -74 L949 -74 L949 163 L191 163 L191 -74 Z"/>
      </clipPath>
    </defs>
    <g fill="white" text-rendering="geometricPrecision" shape-rendering="geometricPrecision" transform="translate(-191,74)" stroke="white">
      <rect x="191" width="758" height="237" y="-74" clip-path="url(#clipPath2)" stroke="none"/>
    </g>
    <g fill="rgb(224,255,223)" text-rendering="geometricPrecision" shape-rendering="geometricPrecision" transform="matrix(1,0,0,1,-191,74)" stroke="rgb(224,255,223)">
      <rect x="513.6864" y="33" clip-path="url(#clipPath2)" width="203" rx="4" ry="4" height="54" stroke="none"/>
    </g>
    <g text-rendering="geometricPrecision" stroke-miterlimit="1.45" shape-rendering="geometricPrecision" transform="matrix(1,0,0,1,-191,74)" stroke-linecap="butt">
      <rect x="513.6864" y="33" clip-path="url(#clipPath2)" fill="none" width="203" rx="4" ry="4" height="54"/>
      <text x="578.12" font-size="16px" y="66.0469" clip-path="url(#clipPath2)" font-family="sans-serif" stroke="none" xml:space="preserve">Event Bus</text>
    </g>
    <g fill="rgb(223,245,255)" text-rendering="geometricPrecision" shape-rendering="geometricPrecision" transform="matrix(1,0,0,1,-191,74)" stroke="rgb(223,245,255)">
      <path d="M380.1864 -59 L418.6864 20 L341.6864 20 Z" fill-rule="evenodd" clip-path="url(#clipPath2)" stroke="none"/>
    </g>
    <g text-rendering="geometricPrecision" stroke-miterlimit="1.45" shape-rendering="geometricPrecision" transform="matrix(1,0,0,1,-191,74)" stroke-linecap="butt">
      <path fill="none" d="M380.1864 -59 L418.6864 20 L341.6864 20 Z" fill-rule="evenodd" clip-path="url(#clipPath2)"/>
    </g>
    <g fill="rgb(223,245,255)" text-rendering="geometricPrecision" shape-rendering="geometricPrecision" transform="matrix(1,0,0,1,-191,74)" stroke="rgb(223,245,255)">
      <path d="M380.1864 68.5 L418.6864 147.5 L341.6864 147.5 Z" fill-rule="evenodd" clip-path="url(#clipPath2)" stroke="none"/>
    </g>
    <g text-rendering="geometricPrecision" stroke-miterlimit="1.45" shape-rendering="geometricPrecision" transform="matrix(1,0,0,1,-191,74)" stroke-linecap="butt">
      <path fill="none" d="M380.1864 68.5 L418.6864 147.5 L341.6864 147.5 Z" fill-rule="evenodd" clip-path="url(#clipPath2)"/>
    </g>
    <g fill="rgb(255,240,223)" text-rendering="geometricPrecision" shape-rendering="geometricPrecision" transform="matrix(1,0,0,1,-191,74)" stroke="rgb(255,240,223)">
      <path d="M811.6864 45.1919 L834.2391 24.25 L866.1337 24.25 L888.6864 45.1919 L888.6864 74.8081 L866.1337 95.75 L834.2391 95.75 L811.6864 74.8081 Z" fill-rule="evenodd" clip-path="url(#clipPath2)" stroke="none"/>
    </g>
    <g text-rendering="geometricPrecision" stroke-miterlimit="1.45" shape-rendering="geometricPrecision" transform="matrix(1,0,0,1,-191,74)" stroke-linecap="butt">
      <path fill="none" d="M811.6864 45.1919 L834.2391 24.25 L866.1337 24.25 L888.6864 45.1919 L888.6864 74.8081 L866.1337 95.75 L834.2391 95.75 L811.6864 74.8081 Z" fill-rule="evenodd" clip-path="url(#clipPath2)"/>
    </g>
    <g fill="white" text-rendering="geometricPrecision" shape-rendering="geometricPrecision" transform="matrix(1,0,0,1,-191,74)" stroke="white">
      <path d="M206.312 36.56 L318.688 36.56 L318.688 51.56 L333.688 51.56 L333.688 83.44 L206.312 83.44 Z" stroke="none" clip-path="url(#clipPath2)"/>
      <path d="M318.688 36.56 L318.688 51.56 L333.688 51.56 Z" clip-path="url(#clipPath2)" fill-rule="evenodd" stroke="none"/>
    </g>
    <g text-rendering="geometricPrecision" stroke-miterlimit="1.45" shape-rendering="geometricPrecision" transform="matrix(1,0,0,1,-191,74)" stroke-linecap="butt">
      <path fill="none" d="M206.312 36.56 L318.688 36.56 L318.688 51.56 L333.688 51.56 L333.688 83.44 L206.312 83.44 Z" clip-path="url(#clipPath2)"/>
      <path fill="none" d="M318.688 36.56 L318.688 51.56 L333.688 51.56 Z" clip-path="url(#clipPath2)" fill-rule="evenodd"/>
      <text x="228.6973" xml:space="preserve" y="64.5352" clip-path="url(#clipPath2)" font-family="sans-serif" stroke="none">HTTP verticles</text>
    </g>
    <g fill="white" text-rendering="geometricPrecision" shape-rendering="geometricPrecision" transform="matrix(1,0,0,1,-191,74)" stroke="white">
      <path d="M806.312 -37.584 L918.688 -37.584 L918.688 -22.584 L933.688 -22.584 L933.688 9.296 L806.312 9.296 Z" stroke="none" clip-path="url(#clipPath2)"/>
      <path d="M918.688 -37.584 L918.688 -22.584 L933.688 -22.584 Z" clip-path="url(#clipPath2)" fill-rule="evenodd" stroke="none"/>
    </g>
    <g text-rendering="geometricPrecision" stroke-miterlimit="1.45" shape-rendering="geometricPrecision" transform="matrix(1,0,0,1,-191,74)" stroke-linecap="butt">
      <path fill="none" d="M806.312 -37.584 L918.688 -37.584 L918.688 -22.584 L933.688 -22.584 L933.688 9.296 L806.312 9.296 Z" clip-path="url(#clipPath2)"/>
      <path fill="none" d="M918.688 -37.584 L918.688 -22.584 L933.688 -22.584 Z" clip-path="url(#clipPath2)" fill-rule="evenodd"/>
      <text x="820.2129" xml:space="preserve" y="-9.6088" clip-path="url(#clipPath2)" font-family="sans-serif" stroke="none">Database verticle</text>
      <path fill="none" d="M574.6239 32.9956 L480 -30 L480 -30 L406.4189 -22.2596" clip-path="url(#clipPath2)"/>
      <path d="M398.4628 -21.4226 L410.9201 -17.7055 L407.4135 -22.3642 L409.8739 -27.6506 Z" clip-path="url(#clipPath2)" stroke="none"/>
      <path fill="none" d="M405.6771 -6.651 L506.5161 44.1784" clip-path="url(#clipPath2)"/>
      <path d="M513.6599 47.7793 L505.1948 37.9131 L505.6231 43.7283 L500.6936 46.8428 Z" clip-path="url(#clipPath2)" stroke="none"/>
      <path fill="none" d="M563.0693 87.0059 L459.9343 140.448 L460.8783 140.448 L411.5248 120.6019" clip-path="url(#clipPath2)"/>
      <path d="M404.1024 117.6172 L413.3705 126.7332 L412.4526 120.9749 L417.1014 117.4552 Z" clip-path="url(#clipPath2)" stroke="none"/>
      <path fill="none" d="M397.7139 104.4199 L505.8593 82.3306" clip-path="url(#clipPath2)"/>
      <path d="M513.6974 80.7297 L500.9396 78.2323 L504.8795 82.5308 L502.9408 88.03 Z" clip-path="url(#clipPath2)" stroke="none"/>
      <path fill="none" d="M716.7311 59.1243 L810 58.32 L810 58.32 L810 58.32 L810 58.32 L810 58.32 L810 58.32 L811.6875 58.3906" clip-path="url(#clipPath2)"/>
      <path d="M811.6875 58.3906 L799.9068 52.8937 L802.6954 58.0146 L799.4891 62.8849 Z" clip-path="url(#clipPath2)" stroke="none"/>
      <path fill="none" d="M817.0926 40.1807 L750 0 L683.1548 29.7501" clip-path="url(#clipPath2)"/>
      <path d="M675.8459 33.0029 L688.8422 32.6917 L684.0684 29.3435 L684.7762 23.5556 Z" clip-path="url(#clipPath2)" stroke="none"/>
    </g>
  </g>
</svg>
